<svg width="20" height="20" viewBox="0 0 20 20" fill="none" xmlns="http://www.w3.org/2000/svg">
<path fill-rule="evenodd" clip-rule="evenodd" d="M18.2216 4.0526C18.2891 3.91589 18.3327 3.75353 18.3327 3.59973C18.3241 3.07849 17.8875 2.65979 17.35 2.65979H3.8833L7.54905 4.2235L14.308 7.09458L17.9986 4.31749C18.0328 4.29186 18.0755 4.25768 18.1011 4.2235C18.1105 4.21498 18.1105 4.21496 18.119 4.20647L18.1191 4.20641C18.1215 4.20304 18.124 4.19968 18.1264 4.1963C18.149 4.16541 18.172 4.13384 18.1874 4.09533L18.2216 4.0526ZM8.06132 11.7947L8.54838 15.768L1.78084 4.05301C1.68685 3.88212 1.65267 3.68558 1.67061 3.48905C1.73042 3.01054 2.12263 2.6602 2.60969 2.6602C2.71223 2.6602 2.82331 2.68583 2.91731 2.72001L7.15556 4.52298L8.06132 11.7947ZM17.5717 5.17232L10.7956 16.8959C10.6162 17.1693 10.3265 17.3402 10.0018 17.3402C9.91718 17.3402 9.83259 17.3291 9.75141 17.306C9.67023 17.2838 9.59248 17.2496 9.5207 17.2052C9.44636 17.1591 9.378 17.1027 9.31904 17.0386C9.28315 17.0001 9.24897 16.96 9.21906 16.9164C9.18745 16.8728 9.16267 16.825 9.1396 16.7763C9.10713 16.7105 9.08662 16.6455 9.07722 16.5729C9.06416 16.4851 9.05417 16.3973 9.04413 16.3089L9.04413 16.3089L9.03877 16.2619L9.02595 16.1636C9.02381 16.1448 9.02146 16.1262 9.01911 16.1076C9.01677 16.089 9.01442 16.0705 9.01228 16.0517C9.00801 16.0106 9.00288 15.9696 8.99775 15.9286C8.99476 15.906 8.99198 15.8835 8.98921 15.8611C8.98643 15.8387 8.98365 15.8162 8.98066 15.7936C8.97767 15.7697 8.9749 15.7456 8.97212 15.7214L8.97212 15.7214C8.96934 15.6973 8.96656 15.6731 8.96357 15.6492C8.95995 15.6225 8.95657 15.5956 8.95318 15.5685C8.95016 15.5445 8.94714 15.5204 8.94392 15.4962C8.94093 15.4693 8.93773 15.4426 8.93452 15.4159C8.93132 15.3892 8.92811 15.3625 8.92512 15.3356C8.91743 15.2792 8.9106 15.2237 8.90376 15.1681L8.90376 15.1681C8.89692 15.11 8.89009 15.0528 8.8824 14.9947C8.87898 14.9652 8.87535 14.9357 8.87172 14.9062C8.86808 14.8767 8.86445 14.8473 8.86103 14.8178C8.8542 14.7571 8.84651 14.6964 8.83882 14.6366L8.8166 14.4538L8.8166 14.4537L8.8166 14.4537C8.80891 14.3922 8.80122 14.3307 8.79438 14.2692L8.77131 14.0846C8.76747 14.0543 8.76384 14.0237 8.76021 13.9932C8.75657 13.9626 8.75294 13.9321 8.7491 13.9018L8.72603 13.7206C8.71919 13.6608 8.71235 13.6018 8.70466 13.542C8.70147 13.5153 8.6981 13.4884 8.69471 13.4614C8.69084 13.4306 8.68695 13.3996 8.6833 13.3686L8.66279 13.2002C8.65938 13.1733 8.65617 13.1464 8.65297 13.1195C8.64976 13.0926 8.64656 13.0656 8.64314 13.0387C8.63995 13.0144 8.63694 12.9902 8.63395 12.9662C8.63053 12.9387 8.62713 12.9114 8.62349 12.8841C8.6205 12.8597 8.61772 12.8354 8.61494 12.811C8.61217 12.7867 8.60939 12.7623 8.6064 12.738C8.60042 12.6927 8.59443 12.6474 8.58931 12.6021L8.58437 12.5602L8.58436 12.5602C8.58114 12.5323 8.57791 12.5044 8.57393 12.4765C8.57179 12.4577 8.56944 12.4389 8.56709 12.4201C8.56474 12.4013 8.56239 12.3825 8.56026 12.3637L8.54744 12.2629C8.54565 12.2426 8.54304 12.2224 8.54046 12.2024L8.53718 12.1766C8.5359 12.1646 8.53441 12.1526 8.53291 12.1407L8.53291 12.1407C8.53142 12.1287 8.52992 12.1167 8.52864 12.1048C8.52608 12.0868 8.52351 12.0689 8.5218 12.0501C8.52009 12.0381 8.51839 12.0253 8.51411 11.9903L14.3673 7.58198L17.5717 5.17232Z" fill="#B284DC"/>
</svg>
