<svg width="104" height="24" viewBox="0 0 104 24" fill="none" xmlns="http://www.w3.org/2000/svg">
<path fill-rule="evenodd" clip-rule="evenodd" d="M25.6539 2.88064C25.6539 2.88064 25.6536 2.88096 25.6533 2.8816C25.6539 2.88064 25.6542 2.88 25.6542 2.88C25.6542 2.88 25.6542 2.88032 25.6539 2.88064ZM25.6527 2.88352C25.653 2.88288 25.653 2.88256 25.6533 2.88192C25.6533 2.88192 25.6533 2.88192 25.6533 2.8816C25.6533 2.88224 25.653 2.88256 25.6527 2.88352ZM25.6524 2.88384C25.6514 2.88416 25.6514 2.88448 25.6514 2.8848C25.6508 2.88576 25.6502 2.88704 25.649 2.888C25.6481 2.88992 25.6465 2.89184 25.6459 2.89344C25.551 3.0496 25.4327 3.192 25.293 3.31424C25.2921 3.31456 25.2918 3.31488 25.2918 3.31552L25.2173 3.37504L25.2143 3.37888L25.1374 3.43968L23.8482 4.45472L19.5824 7.81216L10.416 15.0266L11.264 22.2394L11.2898 22.439C11.2907 22.4397 11.2907 22.4403 11.2907 22.4419C11.3219 22.6294 11.3798 22.8074 11.4626 22.9702C11.4638 22.9734 11.465 22.975 11.4656 22.9773C11.4662 22.9776 11.4668 22.9789 11.4671 22.9802C11.4671 22.9808 11.4681 22.9808 11.4681 22.9808C11.4687 22.9821 11.4687 22.9827 11.4696 22.9834C11.4696 22.984 11.4696 22.9846 11.4699 22.9853C11.4785 23.0032 11.4883 23.0202 11.4984 23.0374C11.5064 23.0528 11.5152 23.0688 11.5244 23.0845C11.525 23.0845 11.525 23.0851 11.5257 23.0854C11.5263 23.0864 11.5263 23.0867 11.5272 23.0877C11.5272 23.0883 11.5272 23.0886 11.5272 23.0886C11.5278 23.0899 11.5287 23.0915 11.53 23.0925C11.5312 23.0947 11.5327 23.0966 11.5336 23.0989C11.8421 23.6083 12.3865 23.9469 13.006 23.9469C13.6187 23.9469 14.157 23.616 14.4677 23.1162C14.4677 23.1155 14.4689 23.1146 14.4689 23.1142C14.4704 23.1117 14.4815 23.0934 14.4848 23.0883C14.4848 23.0877 14.4854 23.0877 14.4854 23.0877C14.4952 23.0707 14.5341 23.0003 14.5436 22.9821L25.4496 3.25152L25.5062 3.14976C25.5062 3.14976 25.6361 2.91424 25.6527 2.88352C25.6524 2.88352 25.6524 2.88352 25.6524 2.88384Z" fill="url(#paint0_linear_2106_314)"/>
<path fill-rule="evenodd" clip-rule="evenodd" d="M24.0604 0.00032H2.24857H2.13614C2.13614 0.00032 1.82426 0.00032 1.83835 0.00064L1.84111 0.00096H1.84234H1.84387C1.84509 0.00128 1.84724 0.00128 1.84724 0.00128C1.84938 0.00128 1.85367 0.00192 1.85367 0.00192C2.02983 0.0096 2.20752 0.04448 2.37878 0.11072C2.3797 0.11072 2.38 0.11072 2.38062 0.11104L2.46732 0.14848L2.56076 0.18816L4.04723 0.84768L8.96405 3.0272L19.5284 7.71136L25.0849 3.33792L25.2371 3.2144C25.2377 3.21408 25.238 3.21376 25.239 3.2128C25.3787 3.09056 25.4969 2.94848 25.5913 2.79264C25.5925 2.79104 25.5934 2.78944 25.595 2.78688C25.5956 2.78592 25.5962 2.78528 25.5974 2.78368C25.5974 2.78336 25.5974 2.78336 25.5983 2.78272C25.5983 2.78208 25.5989 2.78144 25.5993 2.78048C25.5993 2.78048 25.5999 2.78016 25.5999 2.7792C25.61 2.76224 25.6198 2.74528 25.629 2.728C25.6385 2.71168 25.6461 2.69664 25.6547 2.68C25.655 2.67936 25.6556 2.67904 25.6556 2.6784C25.6556 2.67776 25.6562 2.67712 25.6568 2.67584C25.6568 2.67584 25.6568 2.6752 25.6575 2.67488C25.6581 2.6736 25.6587 2.67296 25.6587 2.67104C25.6599 2.66912 25.6614 2.6672 25.6624 2.66496C25.9307 2.13088 25.9384 1.46944 25.629 0.9088C25.3229 0.35424 24.7794 0.03264 24.2096 0.00192H24.2074C24.2044 0.00192 24.1842 0.00064 24.178 0.00032H24.1765C24.1673 0 24.1434 0 24.1192 0C24.095 0 24.0705 0 24.0604 0.00032Z" fill="url(#paint1_linear_2106_314)"/>
<path fill-rule="evenodd" clip-rule="evenodd" d="M1.68894 0.00064H1.68679H1.68526H1.68281C1.68281 0.00064 1.68128 0.00064 1.68005 0.00128H1.67331C1.09613 0.0256 0.543754 0.34848 0.233408 0.90912C-0.0729545 1.46368 -0.0680527 2.11616 0.191437 2.64704C0.191743 2.64736 0.191743 2.648 0.192662 2.64864C0.193581 2.65152 0.203078 2.6704 0.205529 2.67648C0.205836 2.6768 0.205836 2.67712 0.205836 2.67712C0.214414 2.6944 0.253935 2.7648 0.26527 2.78272L11.1706 22.5136L11.2269 22.6147C11.2269 22.6147 11.3694 22.872 11.3758 22.8842C11.3758 22.8835 11.3755 22.8829 11.3755 22.8822C11.3752 22.8816 11.3752 22.881 11.3743 22.88C11.3743 22.8797 11.3737 22.8797 11.3737 22.879C11.3728 22.8778 11.3725 22.8765 11.3718 22.8762C11.3712 22.8739 11.3697 22.8714 11.3694 22.8691C11.2873 22.7062 11.2282 22.5283 11.1969 22.3405V22.3379L11.1834 22.241L11.1825 22.2371L11.1706 22.1366L10.9736 20.4627L10.3226 14.9254V14.9251L8.924 3.0272L2.5201 0.18752L2.34149 0.11104C2.34027 0.1104 2.33935 0.1104 2.33935 0.1104C2.16748 0.04416 1.99009 0.00896 1.8124 0.00128H1.80658C1.80658 0.00128 1.80505 0.00064 1.80382 0.00064H1.8026H1.80076H1.79892C1.77993 0 1.76063 0 1.74102 0C1.72417 0 1.70671 0 1.68894 0.00064ZM11.3758 22.8842C11.3761 22.8848 11.3761 22.8848 11.3758 22.8842Z" fill="url(#paint2_linear_2106_314)"/>
<path fill-rule="evenodd" clip-rule="evenodd" d="M36.0874 6.43168V21.337H32.877V6.43168H28.9473V3.45056H40.0171V6.43168H36.0874Z" fill="white"/>
<path fill-rule="evenodd" clip-rule="evenodd" d="M48.1575 6.13332C47.5022 6.13332 46.8478 6.25748 46.4502 6.4066V12.0949C46.7777 12.1692 47.3157 12.2194 47.8536 12.2194C50.1688 12.2194 51.4081 11.076 51.4081 9.18868C51.4081 7.12692 50.2859 6.13332 48.1575 6.13332ZM48.0172 14.8767C47.456 14.8767 46.8243 14.8271 46.4502 14.7525V21.3372H43.2227V4.41972C44.5088 3.82324 46.1928 3.45044 48.1107 3.45044C52.3207 3.45044 54.6359 5.71124 54.6359 9.21332C54.6359 12.4677 52.3909 14.8767 48.0172 14.8767Z" fill="white"/>
<path fill-rule="evenodd" clip-rule="evenodd" d="M65.2146 13.5239C64.4334 13.0926 63.7677 12.9243 62.253 12.9243H59.728V19.2785C60.3707 19.5182 61.4954 19.7105 62.4598 19.7105C65.2146 19.7105 66.7523 18.5348 66.7523 16.3774C66.7523 15.0827 66.2241 14.0996 65.2146 13.5239ZM62.3906 5.08426C61.3575 5.08426 60.3251 5.27626 59.728 5.51594V11.3902H62.1611C63.745 11.3902 64.4111 11.2225 65.1454 10.6708C65.8111 10.1675 66.2471 9.20842 66.2471 8.12938C66.2471 6.23562 64.8703 5.08426 62.3906 5.08426ZM62.4598 21.3406C60.8067 21.3406 58.8785 20.9329 57.8457 20.4292V4.3649C58.9477 3.83722 60.6465 3.45386 62.3906 3.45386C66.1785 3.45386 68.1527 5.30026 68.1527 7.98538C68.1527 10.2395 66.6377 11.6539 65.3289 11.9895V12.0375C66.7293 12.3972 68.7265 13.6923 68.7265 16.4734C68.7265 19.4942 66.4536 21.3406 62.4598 21.3406Z" fill="white"/>
<path fill-rule="evenodd" clip-rule="evenodd" d="M78.1612 14.3151C75.4061 14.4828 72.4227 14.6511 72.4227 17.3362C72.4227 18.847 73.5017 19.8297 75.6592 19.8297C76.6003 19.8297 77.725 19.638 78.1612 19.4223V14.3151ZM75.7048 21.3404C72.3082 21.3404 70.6094 19.8297 70.6094 17.3842C70.6094 13.6924 74.4199 13.1404 78.1612 12.9244V11.9417C78.1612 10.0236 76.9447 9.42425 75.2226 9.42425C74.0753 9.42425 72.6525 9.80761 71.8489 10.215L71.3437 8.80089C72.2846 8.34521 73.8461 7.88953 75.3837 7.88953C78.1612 7.88953 79.9746 9.04025 79.9746 12.1094V20.429C79.1027 20.9327 77.335 21.3404 75.7048 21.3404Z" fill="white"/>
<path fill-rule="evenodd" clip-rule="evenodd" d="M89.4303 21.3405V12.4666C89.4303 10.7108 88.4205 9.58948 86.4236 9.58948C85.3443 9.58948 84.3808 9.80868 83.7834 10.0528V21.3405H81.8555V8.85828C83.0491 8.32164 84.587 7.93188 86.4007 7.93188C89.6601 7.93188 91.3359 9.54084 91.3359 12.2954V21.3405H89.4303Z" fill="white"/>
<mask id="mask0_2106_314" style="mask-type:alpha" maskUnits="userSpaceOnUse" x="93" y="3" width="11" height="19">
<path fill-rule="evenodd" clip-rule="evenodd" d="M93.2188 3.4541H103.242V21.3405H93.2188V3.4541Z" fill="white"/>
</mask>
<g mask="url(#mask0_2106_314)">
<path fill-rule="evenodd" clip-rule="evenodd" d="M100.969 21.3405L95.147 14.6989H95.101V21.3405H93.2188V3.4541H95.101V14.3395H95.147L100.947 7.93378H103.242L97.2358 14.5312L103.242 21.3405H100.969Z" fill="white"/>
</g>
<defs>
<linearGradient id="paint0_linear_2106_314" x1="14.9696" y1="-5.53439" x2="-2.20079" y2="10.0131" gradientUnits="userSpaceOnUse">
<stop stop-color="#F3B229"/>
<stop offset="0.690774" stop-color="#E7792C"/>
<stop offset="1" stop-color="#CA522D"/>
</linearGradient>
<linearGradient id="paint1_linear_2106_314" x1="-13.979" y1="0.496145" x2="-10.2951" y2="15.6083" gradientUnits="userSpaceOnUse">
<stop stop-color="#F3B229"/>
<stop offset="0.690774" stop-color="#E7792C"/>
<stop offset="1" stop-color="#CA522D"/>
</linearGradient>
<linearGradient id="paint2_linear_2106_314" x1="18.1376" y1="10.3626" x2="-0.799693" y2="1.7605" gradientUnits="userSpaceOnUse">
<stop stop-color="#F3B229"/>
<stop offset="0.690774" stop-color="#E7792C"/>
<stop offset="1" stop-color="#CA522D"/>
</linearGradient>
</defs>
</svg>
