<svg width="20" height="20" viewBox="0 0 20 20" fill="none" xmlns="http://www.w3.org/2000/svg">
<path d="M12.0832 16.25H7.9165C7.9165 17.3958 8.854 18.3333 9.99984 18.3333C11.1457 18.3333 12.0832 17.3958 12.0832 16.25Z" fill="#B284DC"/>
<path d="M17.2915 13.1251H16.7707C16.0415 12.3959 15.2082 11.3542 15.2082 10.0001V6.87508C15.2082 3.95841 12.9165 1.66675 9.99984 1.66675C7.08317 1.66675 4.7915 3.95841 4.7915 6.87508V10.0001C4.7915 11.3542 3.95817 12.3959 3.229 13.1251H2.70817C2.08317 13.1251 1.6665 13.5417 1.6665 14.1667C1.6665 14.7917 2.08317 15.2084 2.70817 15.2084H17.2915C17.9165 15.2084 18.3332 14.7917 18.3332 14.1667C18.3332 13.5417 17.9165 13.1251 17.2915 13.1251Z" fill="#B284DC"/>
</svg>
